<?xml version="1.0" encoding="UTF-8"?>
<svg xmlns="http://www.w3.org/2000/svg" version="1.1" viewBox="0 0 595.3 841.9">
  <defs>
    <style>
      .cls-1, .cls-2, .cls-3 {
        fill: #fff;
      }

      .cls-2, .cls-3 {
        fill-rule: evenodd;
      }

      .cls-4, .cls-3 {
        display: none;
      }
    </style>
  </defs>
  <!-- Generator: Adobe Illustrator 28.7.1, SVG Export Plug-In . SVG Version: 1.2.0 Build 142)  -->
  <g>
    <g id="Layer_1">
      <g class="cls-4">
        <path class="cls-1" d="M81.8,290.7l-39.3,41,23.3,16.3,56.9,3.9-17.4-26.5-13.2-4,13.3-2.4,22.6,20.1,7.3,13.9v34.7c56.2,39.7,81.2,135.7,81.2,135.7l29.1-14.6-14.6-77.2-47.9-35.5-8.3-37.6-6.2-16.7,68.7,81.4,14.6,94-45.8,27.1,35.4,71,56.2-28.3,56.2,28.3,35.4-71-45.8-27.1,14.6-94,68.7-81.4-6.2,16.7-8.3,37.6-47.9,35.5-14.6,77.2,29.1,14.6s25-96,81.2-135.7v-34.7l7.3-13.9,22.6-20.1,13.3,2.4-13.1,4-17.4,26.5,56.9-3.9,23.3-16.3-39.3-41,40.3-15.6s-66.5-166.9-41.8-217.2c-2.3,4-49.2,85.9-24.9,183.7,0,0-21.6-3.8-54.4-6.5l-22.7-22.8,8.6,10.4c-7.3-6.6-17.3-13.2-31.3-18.7-.2,0-.4-.1-.6-.3-5.8-2.2-12.2-4.3-19.4-6.1l.5.4-1.4-.4s-12.5,18.8-52,18.8h-33.3c-39.5,0-52-18.8-52-18.8l-1.4.4.5-.4c-7.2,1.8-13.6,3.9-19.4,6.1-.2.1-.4.2-.6.3-14,5.5-24.1,12.1-31.3,18.7l8.6-10.4-22.7,22.8c-32.8,2.7-54.4,6.5-54.4,6.5,24.3-97.8-22.6-179.7-24.9-183.7,24.7,50.3-41.8,217.2-41.8,217.2l40.3,15.6ZM555.6,403.9l-3.6,37.2-.8,1.4-2.7,1.9,10.7,18.6v1.9l-130,225.9-1.6.9H167.6l-1.6-.9L36.1,464.8v-1.9s10.7-18.6,10.7-18.6l-2.7-1.9-.8-1.4-3.6-37.2-34.5,60,146.2,254.1h292.4l146.2-254.1-34.5-60Z"/>
      </g>
      <path class="cls-3" d="M406.3,105h-199.6c-2.1,5.4-89.4,144.5-95,153.7,14.4,24.8,110,189.6,126.8,218.5v97.9l136-33.1v-67.6c16.8-28.5,112.8-192,127.3-216.6l68.5,39.6c-.2.5-116.4,200.9-116.6,201.4v99.5c-84.2,18.3-210.1,45.5-294.3,63.8v-163.4c-19.6-33.9-126.7-218.8-143.8-248.3L161,26.1h291l109.5,168.7-155.1-89.7h0ZM420.1,703.8l-220.1,48.4v-67.1l220-48.4v67.1ZM388.8,810.8l-141.9,31.1v-66.9l141.8-31.1v66.9Z"/>
      <g class="cls-4">
        <path class="cls-1" d="M344.1,361.4c7.3-16,9.3-31,9.6-42.2-17.5-5.4-38.9-9.6-63.4-9.7-22.3,5.8-39.5,14.1-50.2,20l-.5.9c4.2,5.7,8.3,11.5,12.5,17.2-5.5-1.9-12-4-19.4-5.8l-56.9,94.2h21.4l-102.5,169.9,129.3.2,79.6-131.8h-23.8l25.3-42.6c-9-2.7-16.4-5.6-21.8-8.2,8.8-3.9,44.6-26.3,61-62ZM572.9,349.6c-13-27-31.6-43.8-42.9-52.4h50.2c-7.3-3.3-31.2-14.9-45.1-42.6-10.4-20.5-10.1-39.6-9.4-48.3-13.7,5.6-35.3,12.5-62.5,13.4-33.4,1.1-59.6-7.3-74.4-13.4,10.9,6.4,35.7,22.9,51.6,54.9,10.8,21.8,13.2,41.8,13.6,53.8-4.5,2.7-15.4,8.5-30.4,8.5-15.1,0-26-5.8-30.5-8.5.8,10.7,1,31.3-9.2,53.7-16.3,35.8-47.2,51-56,55,13,6,36.7,14.8,67.4,15.1,32.5.3,57.5-9,70.7-15.1l-20.6-34.3c12.9-6,33.4-13.6,59.5-15.2,37.2-2.4,66,8.5,80.4,15.1-1.7-10.7-5.2-24.6-12.4-39.6ZM219.5,318.1c-4.3-5.9-8.5-11.8-12.8-17.7,17.2-9.6,52-26,98.8-27.5,54.3-1.7,94.6,17.6,112.1,27.3-1.5-10.7-4.9-25.3-12.7-41.1-.6-1.3-1.3-2.6-2-3.8-19.5-36.6-56.5-60.3-97.7-64.9-2.4-.3-4.8-.5-7.3-.6-40.8-2.5-71.4,12.6-83.8,19.6l11.7,16.6c-22.5,8.6-56.9,18.7-99.9,19.8-51.1,1.3-91.7-10.6-116-19.8,21.9,30.7,43.7,61.4,65.6,92.1,14.4-5.1,33.8-10.3,57-11.9,37.8-2.6,68.4,5.4,87,11.9Z"/>
      </g>
      <g class="cls-4">
        <path class="cls-1" d="M557.7,378.4l32.6-31.8h-224l-7.9,7.9-6-6h-6l-12.5,12.7h14.3l7.2,7.2h-28.6l-5.8,5.9-11-20.2v-9l7-7h15.8l-11-10.9h-7.3l-3.5,3.5h-12.3l-25,16.5,9.6,3.1-8.4,24.6-6.4-6.4h-28.6l7.2-7.2h14.3l-12.5-12.7h-6l-6,6-7.9-7.9H5.1l32.6,31.8h158.8l10.9,10.6H48.5l28.5,27.8h142.3l11.6,11.3H88.5l21.7,21.2h142.5l27.6,26.8h34.6l27.6-26.8h142.5l21.7-21.2h-142.3l11.6-11.3h142.3l28.5-27.8h-158.8l10.9-10.6h158.8ZM363.7,498.7h-132.1l-21.8-37.5h-12.7l28.1,48.5h144.8l28.1-48.5h-12.7l-21.8,37.5ZM62.7,334.6l-7.3-7h-9.5l-7.6-7.2H7.9l15,14.2h39.8ZM590.2,320.4h-30.3l-7.6,7.2h-9.5l-7.3,7h39.8l15-14.2Z"/>
      </g>
      <path class="cls-2" d="M335.7,345.3l6.5-10.7h243.6c-11.4,2.5-40.6,24.4-45.6,45.9h-35.2c-2.7-4.2-6.3-7.6-9.8-9.8-16.7-10.1-37.4-2.9-51.3,9.8h-7.1l5.1-19.6-24,14.3c-2.5,1.5-4.6,3.3-6.3,5.3h-35.2c-6.2,3.6-12.6,12.5-14.1,18.8h44.6c1.2,6.4,4.7,12.6,9,17.5-6.9,9.5-13.7,19-20.8,28.4h-33.1c-10.7,6.7-17.7,16.3-22.3,25.7h35.3c-14.6,17.7-30.3,34.2-48,48v-20.5c-10.2,16.3-18,24.3-41.8,31.3-4-2.6-7.8-5.4-11.6-8.2,8.2-4.4,21.5-18.3,20.1-31.7-8.3,3.6-18.5-2.9-22.6-6.3.3-5.1-9.5-12.6-14.1-11.3l2,37.4c-13.3-11.8-25.6-24.9-37.2-38.7h17.9c2.4-5.9,4.9-14.8,4.5-25.7h-42.6c-7.1-9.4-14-19-20.7-28.4,4.4-4.9,7.9-11.1,9.1-17.6h57.8c-3-8.7-15.9-18-22.1-18.8h-40.3c-1.7-2-3.8-3.8-6.4-5.3l-24-14.3,5.1,19.6h-7.1c-13.7-12.4-33.8-19.6-50.4-10.3-4.7,2.2-8.3,6-10.8,10.3h-36.7c-5-21.5-34.2-43.4-45.6-45.9h243.6l5.9,9.6c15.7-15.1,5.6-50.7-3.6-60.7,6.3-2.6,19.8,3.5,21.2,12.3,9.5,2.6,24.1-8.4,25-16.7,6.5,24.1,45.8-8.5,49.3,31.9-18.9-.1-35.7,17.5-15.1,34.2ZM302.4,295.7c0,.2,0,.3,0,.5,0,0,0,.1,0,.2,0,.2-.1.4-.2.5h0c0,0,0,.2-.1.2,0,0,0,.2-.1.2,0,0,0,0,0,0-.1.2-.2.3-.3.5-.9,1.2-2.3,2.1-3.7,2.8-.1,0-.2.1-.3.2-.2.1-.5.2-.7.3-.3.1-.7.2-1,.3-.3,0-.6.2-.9.2,0,0,.2,0,.3,0,0,0,0,0,0,0,.3,0,.7.1,1,.2.6.2,1.1.4,1.7.6.2,0,.3.1.4.2.3.1.6.3.9.4.3.2.6.3.9.5,1.2.7,2.4,1.5,3,2.5.1.2.2.4.3.5l4.8,1.1h.2c3-.1,6.4-1.1,8.9-2.5,0,0,0,0,0,0,0,0,0,0,0,0,1.8-1.3,2.9-2.6,3.3-3.1-2.4,1.8-15.9-.4-18.4-6.6ZM113.7,416.6l1.4-.6c5.3-2.3,7.7-6.6,9-9,1.3.8,3.4,2.6,6.4,6.3-7.3,8.3-10.1,22.4-6,32.4-30.9.7-54.3-22.5-60.4-46.3h23.8c1.6,12.9,13.4,20,25.8,17.2ZM146.6,415.8c-5.3-7.4-20.6-30.6-31.4-16.4-1.6,2.4-2.3,5-4.8,6.1-16.1,2.5-13.2-20.2-2.6-24.9,18.8-10.8,43.8,9.2,50.9,26.5,7.3-1.2,15.9-16.2,14.4-22,13.2,7.9,1.1,25-7.6,29.9,39.2,55.2,81.6,114.4,144.9,141.5h0c7.3,3.1,14.8,5.8,22.6,8-5,.2-10.1.3-15,0-.8,0-1.6,0-2.4,0h0c-.1,0-.2,0-.3,0-.5,0-.9,0-1.4,0-79.4-4.2-119.7-83.3-160.9-140.9-6.8,2.6-15.7,14.4-15.6,21.7h-.4c-7.2-9.5-1.3-26.4,9.5-29.5ZM154.2,445.3h-5.2c.2-1.1,1-2.8,2.1-4.5,1,1.5,2.1,3,3.1,4.5ZM206.7,517.2c-27.2-.1-54.1-21.4-60.2-46.2h25l35.1,46.2ZM255.1,558.6v48.4c-4-4-13.5-13.5-17.4-17.5,2.7-10.9,5-24.8,6-38.3,3.8,2.6,7.6,5.1,11.4,7.3ZM344.5,589.5l-9.1,9.2h0l-8.3,8.3v-30.7c4,0,11.1-.4,15.2-.6.7,4.7,1.4,9.4,2.2,13.9ZM448.7,471c-5.5,23.1-31.4,45.4-57.3,46.1,12.4-14.4,23.4-30.2,34.1-46.1h23.2ZM448,445.3h-5.3c1-1.6,2.1-3.1,3.1-4.6,1.1,1.7,2,3.5,2.2,4.6ZM443.8,423.6c-33.4,45.9-60.7,102.2-113.6,128.1h0c-1.9-.6-3.8-1.3-5.7-2h0c-4.7-1.7-9.3-3.6-13.8-5.7,51.6-30.4,86-81.3,120.7-129-8.7-5-20.8-22.1-7.6-29.9-1.5,5.7,7.2,20.8,14.4,22,7.1-17.3,32.2-37.3,50.9-26.5,5.1,3.2,11.5,11.6,8.1,18.8-16.2,26-12.8-33.9-46.9,16.4,8.7,2.5,14.2,14,12.3,23.3h0c-.5,2.3-1.4,4.4-2.7,6.2h-.4c0-7.3-8.8-19.1-15.6-21.7ZM472.8,407c4.2,4.5,7.8,10.5,16.8,10.7,10.2-.2,15.3-9,17.7-12.8.9-1.8,1.6-3.7,1.9-5.6h21.9c-4.9,21.6-29.2,47.3-58.6,46.3,4.1-10,1.2-24-6.1-32.4,3.1-3.7,5.2-5.5,6.4-6.3Z"/>
    </g>
  </g>
</svg>