<?xml version="1.0" encoding="UTF-8"?>
<svg xmlns="http://www.w3.org/2000/svg" version="1.1" viewBox="0 0 500 500">
  <defs>
    <style>
      .cls-1 {
        fill: #fff;
        fill-rule: evenodd;
      }
    </style>
  </defs>
  <!-- Generator: Adobe Illustrator 28.7.1, SVG Export Plug-In . SVG Version: 1.2.0 Build 142)  -->
  <g>
    <g id="Layer_1">
      <path class="cls-1" d="M488.9,123.8l-56.9,59.5-135.9,13.1-15.8,26.7,1.7,2.1,104.3-10.7-56.1,58.7-79.4,8.2v-.4l-2.2.2-43.7-54.5,29.3-49.5,40.7-1.4-32.5-26.7,246.4-25.3ZM138.8,239.6l45.8-4.7,38.7,48.8-212.2,20.9,58.1-93.2,21.8-2.2-23.2-42,106.3-10.9-62.2,99.6,17.9-1.8,9-14.4ZM368,304.8l13.5-21.9-40.7,4.2,56.1-58.7,71.5-7.4-40.3,42.1,22.5-2.2,9.9,12.4-29.3,49.5-40.7,1.4,32.5,26.7-246.4,25.3,55.5-58.3,135.9-13.1Z"/>
    </g>
  </g>
</svg>