<?xml version="1.0" encoding="UTF-8"?>
<svg xmlns="http://www.w3.org/2000/svg" version="1.1" viewBox="0 0 500 500">
  <defs>
    <style>
      .cls-1 {
        fill: #fff;
        fill-rule: evenodd;
      }
    </style>
  </defs>
  <!-- Generator: Adobe Illustrator 28.7.1, SVG Export Plug-In . SVG Version: 1.2.0 Build 142)  -->
  <g>
    <g id="Layer_1">
      <path class="cls-1" d="M419.1,283.6c-17.4-.4-37.6.4-60.3,3.6-35,5.1-64.9,14.5-88,23.7l46.5-59.1c7.4,2.3,22.5,6,42.1,2.1,10.2-2,18.9-5.5,25.7-9.1l9,7,16.7-3.1-14.1-10.9c.3-.2.6-.4.8-.6l95.9-48.1-74.4,94.5ZM141,287.2c-22.6-3.3-42.9-4-60.2-3.6L6.5,189.2l95.8,48c.3.2.5.4.8.6l-14.1,10.9,16.7,3.1,9-7c6.9,3.5,15.5,7.1,25.7,9.1,19.6,3.9,34.7.2,42.1-2.1l46.5,59.1c-23.1-9.2-53-18.6-88-23.6Z"/>
    </g>
  </g>
</svg>