<?xml version="1.0" encoding="UTF-8"?>
<svg xmlns="http://www.w3.org/2000/svg" version="1.1" viewBox="0 0 595.3 841.9">
  <defs>
    <style>
      .cls-1, .cls-2 {
        fill: #fff;
      }

      .cls-2 {
        fill-rule: evenodd;
      }

      .cls-3 {
        display: none;
      }
    </style>
  </defs>
  <!-- Generator: Adobe Illustrator 28.7.1, SVG Export Plug-In . SVG Version: 1.2.0 Build 142)  -->
  <g>
    <g id="Layer_1">
      <g class="cls-3">
        <path class="cls-1" d="M81.8,290.7l-39.3,41,23.3,16.3,56.9,3.9-17.4-26.5-13.2-4,13.3-2.4,22.6,20.1,7.3,13.9v34.7c56.2,39.7,81.2,135.7,81.2,135.7l29.1-14.6-14.6-77.2-47.9-35.5-8.3-37.6-6.2-16.7,68.7,81.4,14.6,94-45.8,27.1,35.4,71,56.2-28.3,56.2,28.3,35.4-71-45.8-27.1,14.6-94,68.7-81.4-6.2,16.7-8.3,37.6-47.9,35.5-14.6,77.2,29.1,14.6s25-96,81.2-135.7v-34.7l7.3-13.9,22.6-20.1,13.3,2.4-13.1,4-17.4,26.5,56.9-3.9,23.3-16.3-39.3-41,40.3-15.6s-66.5-166.9-41.8-217.2c-2.3,4-49.2,85.9-24.9,183.7,0,0-21.6-3.8-54.4-6.5l-22.7-22.8,8.6,10.4c-7.3-6.6-17.3-13.2-31.3-18.7-.2,0-.4-.1-.6-.3-5.8-2.2-12.2-4.3-19.4-6.1l.5.4-1.4-.4s-12.5,18.8-52,18.8h-33.3c-39.5,0-52-18.8-52-18.8l-1.4.4.5-.4c-7.2,1.8-13.6,3.9-19.4,6.1-.2.1-.4.2-.6.3-14,5.5-24.1,12.1-31.3,18.7l8.6-10.4-22.7,22.8c-32.8,2.7-54.4,6.5-54.4,6.5,24.3-97.8-22.6-179.7-24.9-183.7,24.7,50.3-41.8,217.2-41.8,217.2l40.3,15.6ZM555.6,403.9l-3.6,37.2-.8,1.4-2.7,1.9,10.7,18.6v1.9l-130,225.9-1.6.9H167.6l-1.6-.9L36.1,464.8v-1.9s10.7-18.6,10.7-18.6l-2.7-1.9-.8-1.4-3.6-37.2-34.5,60,146.2,254.1h292.4l146.2-254.1-34.5-60Z"/>
      </g>
      <path class="cls-2" d="M406.3,105h-199.6c-2.1,5.4-89.4,144.5-95,153.7,14.4,24.8,110,189.6,126.8,218.5v97.9l136-33.1v-67.6c16.8-28.5,112.8-192,127.3-216.6l68.5,39.6c-.2.5-116.4,200.9-116.6,201.4v99.5c-84.2,18.3-210.1,45.5-294.3,63.8v-163.4c-19.6-33.9-126.7-218.8-143.8-248.3L161,26.1h291l109.5,168.7-155.1-89.7h0ZM420.1,703.8l-220.1,48.4v-67.1l220-48.4v67.1ZM388.8,810.8l-141.9,31.1v-66.9l141.8-31.1v66.9Z"/>
    </g>
  </g>
</svg>