<?xml version="1.0" encoding="UTF-8"?>
<svg xmlns="http://www.w3.org/2000/svg" version="1.1" viewBox="0 0 24 24">
  <defs>
    <style>
      .cls-1 {
        fill: #fff;
      }
    </style>
  </defs>
  <!-- Generator: Adobe Illustrator 28.7.1, SVG Export Plug-In . SVG Version: 1.2.0 Build 142)  -->
  <g>
    <g id="Layer_1">
      <path class="cls-1" d="M6.9,4.5c.7,0,1.3,0,1.9.2.6.1,1.1.3,1.5.6.4.3.7.7,1,1.1.2.5.3,1,.3,1.7s-.2,1.4-.5,1.9c-.3.5-.8.9-1.5,1.2.9.3,1.6.7,2,1.4.4.7.7,1.4.7,2.4s-.1,1.4-.4,1.9c-.3.5-.7,1-1.2,1.4-.5.3-1.1.6-1.7.8-.6.2-1.3.3-1.9.3H0V4.5h6.9ZM16.9,16.7c.4.4,1.1.6,1.9.6s1.1-.1,1.5-.4c.4-.3.7-.6.8-.9h2.6c-.4,1.3-1,2.2-1.9,2.8-.9.6-1.9.8-3.1.8s-1.6-.1-2.3-.4c-.7-.3-1.2-.6-1.7-1.1-.5-.5-.8-1.1-1.1-1.8-.3-.7-.4-1.4-.4-2.3s.1-1.5.4-2.2c.3-.7.6-1.3,1.1-1.8.5-.5,1.1-.9,1.7-1.2.7-.3,1.4-.4,2.2-.4s1.7.2,2.4.5c.7.3,1.2.8,1.7,1.4.4.6.8,1.3.9,2,.2.8.2,1.5.2,2.4h-7.7c0,.8.3,1.6.7,2.1h0s0,0,0,0ZM6.7,16.7c.3,0,.6,0,.9,0,.3,0,.5-.2.8-.3.2-.1.4-.3.5-.6.1-.2.2-.6.2-1,0-.8-.2-1.3-.6-1.6-.4-.3-1-.5-1.7-.5h-3.5v4h3.5s0,0,0,0ZM20.3,11.1c-.4-.4-.9-.6-1.7-.6s-.9,0-1.2.2c-.3.1-.5.4-.7.6s-.3.5-.4.8c0,.3-.1.5-.1.7h4.8c0-.8-.3-1.3-.7-1.7h0s0,0,0,0ZM6.5,10.4c.6,0,1-.1,1.4-.4.4-.3.6-.7.6-1.3s0-.6-.2-.8c-.1-.2-.3-.4-.5-.5-.2-.1-.4-.2-.7-.3-.3,0-.6,0-.8,0h-3v3.4h3.3ZM15.6,5.5h6v1.5h-6v-1.5h0Z"/>
    </g>
  </g>
</svg>